<svg width="38" height="38" viewBox="0 0 38 38" fill="none" xmlns="http://www.w3.org/2000/svg">
<g clip-path="url(#clip0_1_696)">
<rect width="38" height="38" fill="#A8C1D8" fill-opacity="0.2"/>
<path d="M19.1684 13.5684C15.714 13.5684 12.764 15.717 11.5688 18.7499C12.764 21.7827 15.714 23.9313 19.1684 23.9313C22.6227 23.9313 25.5727 21.7827 26.7679 18.7499C25.5727 15.717 22.6227 13.5684 19.1684 13.5684ZM19.1684 22.2042C17.2616 22.2042 15.714 20.6567 15.714 18.7499C15.714 16.8431 17.2616 15.2955 19.1684 15.2955C21.0751 15.2955 22.6227 16.8431 22.6227 18.7499C22.6227 20.6567 21.0751 22.2042 19.1684 22.2042ZM19.1684 16.6773C18.0215 16.6773 17.0958 17.603 17.0958 18.7499C17.0958 19.8967 18.0215 20.8224 19.1684 20.8224C20.3153 20.8224 21.241 19.8967 21.241 18.7499C21.241 17.603 20.3153 16.6773 19.1684 16.6773Z" fill="black" fill-opacity="0.7"/>
</g>
<defs>
<clipPath id="clip0_1_696">
<rect width="38" height="38" fill="white"/>
</clipPath>
</defs>
</svg>
