<svg width="18" height="20" viewBox="0 0 18 20" fill="none" xmlns="http://www.w3.org/2000/svg">
<g clip-path="url(#clip0_1_900)">
<path d="M17.171 4.93718C16.5959 5.19268 15.9773 5.36508 15.3279 5.44242C15.9906 5.04555 16.4993 4.41674 16.739 3.66703C16.1188 4.03491 15.4324 4.30203 14.7012 4.44604C14.116 3.82238 13.282 3.43262 12.3591 3.43262C10.5869 3.43262 9.15015 4.86943 9.15015 6.64158C9.15015 6.89304 9.1785 7.13784 9.23324 7.37269C6.56627 7.23905 4.2016 5.96163 2.61893 4.02002C2.3428 4.4938 2.18452 5.04494 2.18452 5.63327C2.18452 6.74652 2.75101 7.72864 3.61203 8.30427C3.08616 8.28737 2.59115 8.1432 2.15862 7.90272C2.15833 7.91606 2.15833 7.92955 2.15833 7.94336C2.15833 9.49784 3.26447 10.7948 4.73258 11.0898C4.46328 11.163 4.17975 11.2024 3.88705 11.2024C3.68007 11.2024 3.47916 11.1824 3.2832 11.1447C3.69173 12.4195 4.87676 13.3474 6.28071 13.3732C5.18248 14.234 3.79898 14.747 2.29536 14.747C2.03647 14.747 1.78114 14.7316 1.53 14.7022C2.95036 15.6128 4.63692 16.1439 6.44905 16.1439C12.3516 16.1439 15.579 11.2542 15.579 7.01363C15.579 6.87472 15.5762 6.73598 15.57 6.59847C16.1968 6.14609 16.7411 5.58088 17.171 4.93718Z" fill="black"/>
</g>
<defs>
<clipPath id="clip0_1_900">
<rect width="18" height="20" fill="white"/>
</clipPath>
</defs>
</svg>
