<svg width="94" height="31" viewBox="0 0 94 31" fill="none" xmlns="http://www.w3.org/2000/svg">
<path d="M14.8152 30.8377C12.9177 30.8377 11.0202 30.5131 9.19566 29.7016C7.51709 28.9712 5.98448 27.8351 4.67081 26.4555C3.43013 25.0759 2.40839 23.3717 1.67858 21.5864C0.948765 19.6387 0.583859 17.6099 0.65684 15.5812C0.65684 13.5524 1.02175 11.4424 1.67858 9.57592C2.40839 7.70942 3.35715 6.08639 4.67081 4.70681C7.37112 1.86649 11.0202 0.324607 14.7422 0.324607C16.6398 0.324607 18.6103 0.649215 20.4348 1.46073C22.0404 2.1911 23.573 3.16492 24.8137 4.5445L20.3618 9.49476C19.705 8.68325 18.9022 8.11518 18.0264 7.70942C17.0047 7.22251 15.9099 6.97906 14.7422 7.06021C13.7205 7.06021 12.6988 7.22251 11.823 7.62827C10.9472 8.03403 10.2174 8.60209 9.56056 9.41361C8.90373 10.2251 8.39286 11.1178 8.02796 12.0916C7.66305 13.2277 7.51709 14.445 7.51709 15.6623C7.51709 16.8796 7.66305 18.0969 8.02796 19.233C8.39286 20.2068 8.90373 21.1806 9.56056 21.9921C10.2174 22.7225 11.0202 23.3717 11.823 23.7775C12.7717 24.1832 13.7935 24.3455 14.7422 24.3455C15.837 24.3455 17.0047 24.1832 18.0264 23.6963C18.9022 23.2906 19.778 22.6414 20.4348 21.8298L24.9596 26.7801C23.646 28.0785 22.1863 29.1335 20.5807 29.8639C18.6832 30.5131 16.7857 30.8377 14.8152 30.8377ZM34.9581 30.8377C33.1335 30.8377 31.309 30.4319 29.7034 29.4581C28.2438 28.5654 26.9301 27.267 26.0544 25.644C25.1786 23.9398 24.6677 22.0733 24.7407 20.1257C24.7407 18.2592 25.1786 16.3115 26.0544 14.6885C26.9301 13.0654 28.1708 11.767 29.7034 10.8743C31.309 9.90052 33.1335 9.41361 34.9581 9.41361C36.7826 9.41361 38.6071 9.90052 40.2127 10.8743C41.7453 11.767 42.986 13.0654 43.8618 14.6885C44.7376 16.3115 45.2484 18.178 45.1755 20.0445C45.1755 21.9921 44.7376 23.8586 43.8618 25.5628C42.986 27.1859 41.7453 28.4843 40.2127 29.377C38.5342 30.3508 36.7826 30.8377 34.9581 30.8377ZM34.9581 24.3455C35.6149 24.3455 36.2717 24.1832 36.8556 23.8586C37.3665 23.534 37.8773 22.966 38.1693 22.3979C38.4612 21.7487 38.6071 20.9372 38.6071 20.2068C38.6071 19.4764 38.4612 18.6649 38.0963 18.0157C37.8043 17.3665 37.3665 16.8796 36.8556 16.555C36.2717 16.2304 35.6149 15.9869 34.9581 16.0681C34.3012 16.0681 33.6444 16.2304 33.0606 16.6361C32.5497 16.9607 32.1118 17.5288 31.8199 18.178C31.528 18.8272 31.382 19.5576 31.382 20.3691C31.382 21.0995 31.528 21.8298 31.8199 22.5602C32.1118 23.2094 32.5497 23.6963 33.0606 24.0209C33.5714 24.1832 34.2283 24.3455 34.9581 24.3455ZM54.5171 30.7565C51.2329 30.8377 48.1677 28.8901 46.6351 25.644C45.8323 23.9398 45.4674 22.0733 45.5404 20.2068C45.5404 18.3403 45.9053 16.3927 46.6351 14.6885C47.3649 13.1466 48.4596 11.8482 49.7733 10.9555C51.2329 9.98168 52.8385 9.57592 54.5171 9.57592C55.6118 9.57592 56.7065 9.81937 57.7283 10.3063C58.677 10.712 59.5528 11.3613 60.2096 12.2539C60.8665 13.0654 61.3043 14.0393 61.3773 15.0942V24.9948C61.2314 26.0497 60.7935 27.1047 60.2096 27.9162C59.4798 28.8089 58.604 29.5393 57.6553 30.1073C56.6335 30.5131 55.5388 30.7565 54.5171 30.7565ZM55.6118 24.3455C56.2686 24.3455 56.9255 24.1832 57.5093 23.8586C58.0202 23.534 58.4581 22.966 58.75 22.3979C59.1149 21.7487 59.2609 20.9372 59.2609 20.2068C59.2609 19.4764 59.1149 18.7461 58.823 18.0969C58.531 17.5288 58.0932 16.9607 57.5823 16.6361C56.9984 16.2304 56.3416 16.0681 55.6848 16.0681C55.0279 16.0681 54.3711 16.2304 53.7873 16.6361C53.2764 17.0419 52.8385 17.5288 52.4736 18.0969C52.1817 18.7461 52.0357 19.4764 52.0357 20.2068C52.0357 20.9372 52.1817 21.6675 52.4736 22.3979C52.7655 22.966 53.2034 23.534 53.7873 23.8586C54.2981 24.1021 54.955 24.3455 55.6118 24.3455ZM65.3913 30.3508H58.9689V24.9136L59.8447 19.8822L58.823 14.9319V0H65.3183L65.3913 30.3508Z" fill="#2F2F2F"/>
<path d="M84.9503 30.1885L77.7252 17.0419H77.0683L66.9969 0.649216H74.9519L82.0311 13.0654H82.6879L92.8323 30.1885H84.9503ZM66.559 30.1885L76.1925 14.445L81.4472 17.2042L74.1491 30.1885H66.559ZM82.8339 16.3927L77.5792 13.5524L84.6584 0.649216H92.3214L82.8339 16.3927Z" fill="url(#paint0_linear_1_453)"/>
<defs>
<linearGradient id="paint0_linear_1_453" x1="70.6398" y1="2.63565" x2="90.3658" y2="25.8089" gradientUnits="userSpaceOnUse">
<stop stop-color="#EAD71B"/>
<stop offset="0.57" stop-color="#FF7F96"/>
<stop offset="1" stop-color="#82CBAC"/>
</linearGradient>
</defs>
</svg>
