<svg width="38" height="38" viewBox="0 0 38 38" fill="none" xmlns="http://www.w3.org/2000/svg">
<path d="M0 19C0 8.50659 8.50659 0 19 0C29.4934 0 38 8.50659 38 19C38 29.4934 29.4934 38 19 38C8.50659 38 0 29.4934 0 19Z" fill="#FF7F96"/>
<g clip-path="url(#clip0_1_707)">
<path d="M23.2114 16.7278H22.4822V15.2693C22.4822 13.2566 20.8487 11.623 18.8359 11.623C16.8232 11.623 15.1897 13.2566 15.1897 15.2693V16.7278H14.4605C13.6583 16.7278 13.002 17.3841 13.002 18.1863V25.4788C13.002 26.281 13.6583 26.9373 14.4605 26.9373H23.2114C24.0136 26.9373 24.6699 26.281 24.6699 25.4788V18.1863C24.6699 17.3841 24.0136 16.7278 23.2114 16.7278ZM18.8359 23.2911C18.0338 23.2911 17.3774 22.6347 17.3774 21.8326C17.3774 21.0304 18.0338 20.374 18.8359 20.374C19.6381 20.374 20.2944 21.0304 20.2944 21.8326C20.2944 22.6347 19.6381 23.2911 18.8359 23.2911ZM16.6482 16.7278V15.2693C16.6482 14.0587 17.6254 13.0815 18.8359 13.0815C20.0465 13.0815 21.0237 14.0587 21.0237 15.2693V16.7278H16.6482Z" fill="white"/>
</g>
<defs>
<clipPath id="clip0_1_707">
<rect width="12" height="16" fill="white" transform="translate(13 11)"/>
</clipPath>
</defs>
</svg>
